<?xml version="1.0" encoding="utf-8"?>
<!-- Generator: Adobe Illustrator 24.0.0, SVG Export Plug-In . SVG Version: 6.00 Build 0)  -->
<svg version="1.1" id="Layer_1" xmlns="http://www.w3.org/2000/svg" xmlns:xlink="http://www.w3.org/1999/xlink" x="0px" y="0px"
	 viewBox="0 0 158.76 500" style="enable-background:new 0 0 158.76 500;" xml:space="preserve">
<style type="text/css">
	.st0{fill:none;}
	.st1{fill:#F4061B;}
	.st2{fill:#FFFFFF;}
</style>
<g>
	<path class="st0" d="M64.72,130.18c0,0,2.07-51.4-1.06-55.58C63.66,74.6,62.61,127.01,64.72,130.18z"/>
	<path class="st1" d="M113.4,230.68c0,0-7.65-108.98-13.39-120.44l1.51,79.04C100.5,152.2,97.34,75.88,88.1,54.58
		c1.92,11.09,2.68,55.58,2.68,55.58c-0.98-4.64-2.9-49.36-3.21-56.75c0-0.04-0.04-0.04-0.04-0.08c0-0.04,0-0.04,0-0.04
		c-0.26-0.49-0.49-0.94-0.75-1.36V28.03c0,0-6.83,13.39-7.81,27.72v31.6c-1.13-15.16-0.41-28.21-0.11-32.54c0-0.04,0-0.04,0-0.08
		L72.3,7.97l-3.77,38.88l1.24,31.83c-3.24-4.45-1.77-26.25-1.36-31.41c-0.49,0.6-2.98,4.83-4.75,27.34
		c3.13,4.19,1.06,55.58,1.06,55.58c-2.11-3.17-1.06-55.58-1.06-55.58c-0.87,10.71-1.58,25.57-1.89,46.16c0,0-0.94-86.96-5.73-97.48
		c0,0-12.41,129.98-8.6,151.97c0,0-10.51,135.55-11.55,224.85c-0.01,0.6,0.01,0.75,0,1.35c-0.25,23.83-2.01,42.21-0.65,55.68
		c0.95,9.4,5.37,17.75,7.4,19.19c0,0,0.41,0.43,1.17,1.14c7.51,6.96,50.15,41.67,76.15-29.47
		C119.99,447.97,132.52,438.07,113.4,230.68z M39.22,352.61c2.7,3.21,1.33,32.42,1.33,32.42C35.24,379.19,39.22,352.61,39.22,352.61
		z M40.9,473.79c0,0-1.68-32.95,2.04-35.08L40.9,473.79z M42.94,383.7c-0.27-10.36,14.88-39.33,14.88-39.33L42.94,383.7z"/>
	<path class="st2" d="M39.22,352.61c0,0-3.99,26.57,1.33,32.42C40.55,385.03,41.92,355.82,39.22,352.61z"/>
	<path class="st2" d="M57.82,344.38c0,0-15.15,28.96-14.88,39.33L57.82,344.38z"/>
	<path class="st2" d="M40.9,473.79l2.04-35.08C39.22,440.84,40.9,473.79,40.9,473.79z"/>
</g>
<path class="st2" d="M117.66,200.96c-0.02-0.07-0.05-0.11-0.08-0.17c-0.02-0.05-0.03-0.09-0.05-0.12c-0.01-0.17-0.01-0.27-0.01-0.27
	C117.57,200.5,117.62,200.69,117.66,200.96z"/>
<path class="st2" d="M112.48,198.93l-0.01,0.08c0,0-0.01,0.01-0.02,0.03c0.01-0.19,0.02-0.3,0.02-0.3L112.48,198.93z"/>
<path class="st2" d="M115.25,200.64v0.65l-0.03-0.25c0-0.01,0-0.01,0-0.02C115.24,200.77,115.25,200.64,115.25,200.64z"/>
</svg>
